<svg xmlns="http://www.w3.org/2000/svg" width="627" height="398" viewBox="0 0 627 398">
<g>
<path d="M 417.70 387.20 C408.14,389.22 404.44,389.37 359.00,389.56 C332.33,389.67 309.15,389.57 307.50,389.32 C297.56,387.85 282.81,381.07 272.50,373.23 C259.36,363.23 249.06,350.80 237.96,331.50 C226.20,311.07 217.21,299.72 207.44,292.97 C203.28,290.10 193.34,286.33 192.40,287.27 C191.87,287.80 181.54,317.08 177.68,329.00 C175.09,336.97 174.68,355.59 176.91,363.50 C178.61,369.54 182.35,377.33 185.67,381.76 C187.01,383.55 187.83,385.46 187.50,386.01 C186.74,387.23 127.00,387.39 127.00,386.17 C127.00,385.71 129.49,383.62 132.54,381.52 C144.47,373.30 160.52,354.70 167.50,341.00 C168.48,339.08 169.75,336.60 170.32,335.50 C171.42,333.37 177.68,315.43 191.97,273.50 C205.26,234.49 221.85,186.03 248.97,107.00 C250.01,103.97 254.27,91.38 258.44,79.00 C267.48,52.21 268.59,48.47 270.49,48.03 C270.79,47.95 271.12,47.97 271.50,47.98 C271.68,47.99 271.87,48.00 272.08,48.00 C273.69,48.00 275.00,48.13 275.00,48.28 C275.00,48.72 283.77,74.75 286.62,82.75 C288.04,86.74 289.55,90.00 289.96,90.00 C290.38,90.00 293.15,86.74 296.11,82.75 C310.44,63.48 329.06,51.08 353.53,44.49 C362.65,42.04 381.22,39.89 388.00,40.51 C420.03,43.41 440.93,50.25 462.56,64.89 C467.48,68.21 474.09,73.42 477.25,76.47 L 483.00 82.00 L 483.00 105.94 C483.00,127.14 482.34,133.94 480.71,129.69 C479.66,126.94 466.20,109.00 456.92,97.96 C436.54,73.74 415.96,56.98 397.50,49.56 C391.69,47.23 388.54,46.66 379.00,46.25 C360.52,45.45 348.05,49.72 335.64,61.09 C323.99,71.77 317.99,87.90 318.01,108.50 C318.02,114.21 318.63,120.49 319.43,123.14 C326.26,145.64 345.67,165.95 375.00,181.29 C392.55,190.47 403.57,196.35 404.50,197.02 C405.94,198.05 414.45,202.70 430.77,211.34 C465.42,229.71 486.74,253.11 493.38,280.05 C499.25,303.87 493.77,331.80 479.52,350.76 C464.97,370.12 446.26,381.14 417.70,387.20 ZM 317.00 377.17 C320.02,378.69 322.82,379.95 323.21,379.97 C324.35,380.02 328.82,371.82 331.13,365.42 C332.88,360.57 333.27,357.23 333.28,347.00 L 333.30 334.50 L 327.66 318.00 C324.56,308.92 321.61,300.60 321.09,299.50 C320.58,298.40 318.35,292.10 316.14,285.50 C313.92,278.90 308.91,264.27 305.00,253.00 C301.09,241.73 296.36,228.00 294.50,222.50 C289.21,206.87 273.57,161.47 270.04,151.50 C266.79,142.31 262.81,130.71 258.06,116.57 C255.37,108.56 253.70,106.42 252.72,109.71 C251.90,112.44 227.81,182.75 214.85,220.22 C212.05,228.32 210.00,235.57 210.29,236.33 C210.59,237.09 212.74,238.71 215.08,239.93 C223.31,244.21 234.32,253.90 242.44,264.00 C254.32,278.76 259.17,288.73 266.53,313.50 C272.19,332.56 280.39,346.62 293.44,359.61 C302.81,368.93 307.35,372.32 317.00,377.17 ZM 407.00 379.64 C412.43,383.67 413.91,383.52 425.82,377.71 C441.49,370.06 453.71,356.09 458.71,340.13 C462.40,328.36 462.62,311.19 459.21,300.34 C453.99,283.69 449.43,276.12 437.55,264.43 C427.14,254.17 419.73,248.97 403.50,240.49 C396.35,236.76 385.77,231.24 380.00,228.22 C374.23,225.21 364.77,220.17 359.00,217.02 C336.90,204.96 328.90,200.87 328.03,201.18 C327.53,201.36 329.96,209.82 333.42,220.00 C339.49,237.84 352.82,276.86 363.14,307.00 C365.87,314.98 368.80,323.75 369.64,326.50 C371.41,332.26 378.29,345.49 384.55,355.17 C389.52,362.86 400.46,374.79 407.00,379.64 Z" fill="rgb(5,7,6)"/>
<path d="M 0.00 199.00 L 0.00 0.00 L 313.50 0.00 L 627.00 0.00 L 627.00 199.00 L 627.00 398.00 L 313.50 398.00 L 0.00 398.00 L 0.00 199.00 ZM 417.70 387.20 C446.26,381.14 464.97,370.12 479.52,350.76 C493.77,331.80 499.25,303.87 493.38,280.05 C486.74,253.11 465.42,229.71 430.77,211.34 C414.45,202.70 405.94,198.05 404.50,197.02 C403.57,196.35 392.55,190.47 375.00,181.29 C345.67,165.95 326.26,145.64 319.43,123.14 C318.63,120.49 318.02,114.21 318.01,108.50 C317.99,87.90 323.99,71.77 335.64,61.09 C348.05,49.72 360.52,45.45 379.00,46.25 C388.54,46.66 391.69,47.23 397.50,49.56 C415.96,56.98 436.54,73.74 456.92,97.96 C466.20,109.00 479.66,126.94 480.71,129.69 C482.34,133.94 483.00,127.14 483.00,105.94 L 483.00 82.00 L 477.25 76.47 C474.09,73.42 467.48,68.21 462.56,64.89 C440.93,50.25 420.03,43.41 388.00,40.51 C381.22,39.89 362.65,42.04 353.53,44.49 C329.06,51.08 310.44,63.48 296.11,82.75 C293.15,86.74 290.38,90.00 289.96,90.00 C289.55,90.00 288.04,86.74 286.62,82.75 C283.77,74.75 275.00,48.72 275.00,48.28 C275.00,48.13 273.69,48.00 272.08,48.00 C268.68,48.00 269.62,45.85 258.44,79.00 C254.27,91.38 250.01,103.97 248.97,107.00 C221.85,186.03 205.26,234.49 191.97,273.50 C177.68,315.43 171.42,333.37 170.32,335.50 C169.75,336.60 168.48,339.08 167.50,341.00 C160.52,354.70 144.47,373.30 132.54,381.52 C129.49,383.62 127.00,385.71 127.00,386.17 C127.00,387.39 186.74,387.23 187.50,386.01 C187.83,385.46 187.01,383.55 185.67,381.76 C182.35,377.33 178.61,369.54 176.91,363.50 C174.68,355.59 175.09,336.97 177.68,329.00 C181.54,317.08 191.87,287.80 192.40,287.27 C193.34,286.33 203.28,290.10 207.44,292.97 C217.21,299.72 226.20,311.07 237.96,331.50 C249.06,350.80 259.36,363.23 272.50,373.23 C282.81,381.07 297.56,387.85 307.50,389.32 C309.15,389.57 332.33,389.67 359.00,389.56 C404.44,389.37 408.14,389.22 417.70,387.20 ZM 407.00 379.64 C400.46,374.79 389.52,362.86 384.55,355.17 C378.29,345.49 371.41,332.26 369.64,326.50 C368.80,323.75 365.87,314.98 363.14,307.00 C352.82,276.86 339.49,237.84 333.42,220.00 C329.96,209.82 327.53,201.36 328.03,201.18 C328.90,200.87 336.90,204.96 359.00,217.02 C364.77,220.17 374.23,225.21 380.00,228.22 C385.77,231.24 396.35,236.76 403.50,240.49 C419.73,248.97 427.14,254.17 437.55,264.43 C449.43,276.12 453.99,283.69 459.21,300.34 C462.62,311.19 462.40,328.36 458.71,340.13 C453.71,356.09 441.49,370.06 425.82,377.71 C413.91,383.52 412.43,383.67 407.00,379.64 ZM 317.00 377.17 C307.35,372.32 302.81,368.93 293.44,359.61 C280.39,346.62 272.19,332.56 266.53,313.50 C259.17,288.73 254.32,278.76 242.44,264.00 C234.32,253.90 223.31,244.21 215.08,239.93 C212.74,238.71 210.59,237.09 210.29,236.33 C210.00,235.57 212.05,228.32 214.85,220.22 C227.81,182.75 251.90,112.44 252.72,109.71 C253.70,106.42 255.37,108.56 258.06,116.57 C262.81,130.71 266.79,142.31 270.04,151.50 C273.57,161.47 289.21,206.87 294.50,222.50 C296.36,228.00 301.09,241.73 305.00,253.00 C308.91,264.27 313.92,278.90 316.14,285.50 C318.35,292.10 320.58,298.40 321.09,299.50 C321.61,300.60 324.56,308.92 327.66,318.00 L 333.30 334.50 L 333.28 347.00 C333.27,357.23 332.88,360.57 331.13,365.42 C328.82,371.82 324.35,380.02 323.21,379.97 C322.82,379.95 320.02,378.69 317.00,377.17 Z" fill="rgb(254,254,254)"/>
</g>
</svg>